<svg xmlns="http://www.w3.org/2000/svg" id="Capa_1" enable-background="new 0 0 512 512" height="512" viewBox="0 0 512 512" width="512">
    <g>
        <g>
            <path d="m354.15 511.996c-80.701-.566-146.666-66.687-147.047-147.394-.143-30.4 8.858-59.651 26.031-84.59 12.565-18.248 14.675-41.513 5.644-62.233-6.979-16.011-10.518-33.057-10.518-50.666 0-23.192 7.152-45.288 21.259-65.674 12.81-18.514 31.574-35.698 55.769-51.077 1.998-1.27 4.278-2.854 6.693-4.53 11.426-7.934 25.647-45.832 43.232-45.832s31.805 37.898 43.232 45.833c2.414 1.676 4.694 3.26 6.692 4.529 24.195 15.379 42.959 32.564 55.769 51.077 14.107 20.386 21.259 42.482 21.259 65.674 0 17.609-3.539 34.655-10.518 50.666-9.031 20.72-6.921 43.984 5.644 62.232 17.173 24.94 26.174 54.191 26.031 84.59-.38 80.708-66.345 146.829-147.047 147.395l-1.062.004z" fill="#f9c36e"/>
            <path d="m325.71 364.699c.163-34.67-10.108-68.036-29.702-96.491-8.46-12.286-9.846-28.028-3.707-42.112 8.13-18.65 12.252-38.495 12.252-58.983 0-27.505-8.397-53.585-24.957-77.516-2.857-4.129-5.975-8.188-9.329-12.179-8.075 7.713-15.013 15.733-20.748 24.021-14.107 20.386-21.259 42.482-21.259 65.674 0 17.609 3.539 34.655 10.518 50.666 9.031 20.72 6.921 43.985-5.644 62.233-17.173 24.94-26.174 54.191-26.031 84.59.238 50.564 26.222 95.4 65.442 121.979 32.499-30.693 52.939-74.037 53.165-121.882z" fill="#e7b467"/>
        </g>
        <g>
            <path d="m155.725 511.996c-80.702-.566-146.667-66.687-147.047-147.394-.143-30.4 8.858-59.651 26.031-84.59 12.565-18.248 14.675-41.513 5.644-62.233-6.979-16.011-10.518-33.057-10.518-50.666 0-23.192 7.152-45.288 21.259-65.674 12.81-18.514 31.574-35.698 55.769-51.077 1.998-1.27 4.278-2.854 6.693-4.53 11.426-7.934 25.647-45.832 43.232-45.832s31.805 37.898 43.232 45.833c2.414 1.676 4.694 3.26 6.692 4.529 24.195 15.379 42.959 32.564 55.769 51.077 14.107 20.386 21.259 42.482 21.259 65.674 0 17.609-3.539 34.655-10.518 50.666-9.031 20.72-6.921 43.984 5.644 62.232 17.173 24.94 26.174 54.191 26.031 84.59-.38 80.708-66.345 146.829-147.047 147.395l-1.062.004z" fill="#fad59a"/>
            <path d="m155.725 511.996 1.063.004 1.063-.004c80.702-.566 146.667-66.687 147.047-147.395.143-30.399-8.858-59.65-26.031-84.59-12.565-18.248-14.675-41.513-5.644-62.232 6.979-16.011 10.518-33.057 10.518-50.666 0-23.192-7.152-45.288-21.259-65.674 0 0-4.235 263.163-253.803 263.163.379 80.707 66.344 146.828 147.046 147.394z" fill="#f9c36e"/>
            <path d="m156.778 480.78c.004 0 .853-.003.853-.003 63.688-.447 115.746-52.629 116.047-116.323.113-23.995-6.985-47.073-20.525-66.738-18.723-27.191-21.919-61.738-8.549-92.412 5.254-12.052 7.917-24.901 7.917-38.192 0-33.604-21.047-64.02-62.555-90.403-10.935-6.95-23.012-17.468-33.178-17.468s-22.244 10.52-33.178 17.469c-41.509 26.383-62.555 56.799-62.555 90.403 0 13.29 2.664 26.139 7.917 38.192 13.37 30.674 10.174 65.221-8.549 92.412-13.541 19.665-20.638 42.743-20.525 66.738.3 63.694 52.359 115.876 116.047 116.323 0 0 .849.003.853.003h-.02z" fill="#9d6b6b"/>
            <ellipse cx="157.159" cy="366.309" fill="#d58956" rx="62.439" ry="83.252"/>
            <path d="m173.097 285.804c7.16 13.547 11.379 30.056 11.379 47.889 0 45.979-27.955 83.252-62.439 83.252-5.509 0-10.849-.961-15.938-2.747 11.301 21.382 29.95 35.363 51.06 35.363 34.484 0 62.439-37.273 62.439-83.252 0-38.633-19.739-71.11-46.501-80.505z" fill="#c27b45"/>
            <ellipse cx="157.159" cy="175.246" fill="#d58956" rx="56.396" ry="75.195"/>
            <path d="m179.332 106.094c5.487 11.598 8.674 25.324 8.674 40.051 0 41.529-25.249 75.195-56.396 75.195-7.873 0-15.367-2.157-22.174-6.043 9.987 21.109 27.62 35.144 47.722 35.144 31.147 0 56.396-33.666 56.396-75.195.001-31.032-14.1-57.666-34.222-69.152z" fill="#c27b45"/>
        </g>
        <g>
            <path d="m388.971 135.245c-4.267 0-7.726-3.459-7.726-7.726s3.459-7.726 7.726-7.726c6.566 0 11.907-5.342 11.907-11.907 0-4.267 3.459-7.726 7.726-7.726s7.726 3.459 7.726 7.726c.001 15.085-12.273 27.359-27.359 27.359z" fill="#e7b467"/>
        </g>
        <g>
            <path d="m408.605 204.92c-4.267 0-7.726-3.459-7.726-7.726s3.459-7.726 7.726-7.726c6.566 0 11.907-5.342 11.907-11.907 0-4.267 3.459-7.726 7.726-7.726s7.726 3.459 7.726 7.726c.001 15.085-12.273 27.359-27.359 27.359z" fill="#e7b467"/>
        </g>
        <g>
            <path d="m331.028 185.286c-4.267 0-7.726-3.459-7.726-7.726s3.459-7.726 7.726-7.726c6.566 0 11.907-5.342 11.907-11.907 0-4.267 3.459-7.726 7.726-7.726s7.726 3.459 7.726 7.726c.001 15.085-12.273 27.359-27.359 27.359z" fill="#e7b467"/>
        </g>
        <g>
            <path d="m340.845 267.984c-4.267 0-7.726-3.459-7.726-7.726s3.459-7.726 7.726-7.726c6.566 0 11.907-5.342 11.907-11.907 0-4.267 3.459-7.726 7.726-7.726s7.726 3.459 7.726 7.726c.001 15.085-12.273 27.359-27.359 27.359z" fill="#e7b467"/>
        </g>
        <g>
            <path d="m325.712 107.365c-4.267 0-7.726-3.459-7.726-7.726s3.459-7.726 7.726-7.726c6.566 0 11.907-5.342 11.907-11.907 0-4.267 3.459-7.726 7.726-7.726s7.726 3.459 7.726 7.726c.001 15.086-12.273 27.359-27.359 27.359z" fill="#e7b467"/>
        </g>
    </g>
</svg>