<svg xmlns="http://www.w3.org/2000/svg"
    xmlns:xlink="http://www.w3.org/1999/xlink"
    xmlns:svgjs="http://svgjs.com/svgjs" version="1.1" width="512" height="512" x="0" y="0" viewBox="0 0 512 512" style="enable-background:new 0 0 512 512" xml:space="preserve" class="">
    <g>
        <path xmlns="http://www.w3.org/2000/svg" d="m512 256c0 7.785156-.34375 15.484375-1.023438 23.082031-2.175781 24.347657-7.765624 47.71875-16.28125 69.621094-3.542968 9.121094-7.59375 17.992187-12.121093 26.582031-27.582031 52.285156-72.746094 93.875-127.621094 116.882813-19.667969 8.253906-40.585937 14.117187-62.382813 17.242187-4.878906.699219-9.789062 1.253906-14.753906 1.671875h-.007812c-7.191406.605469-14.464844.917969-21.808594.917969-38.253906 0-74.542969-8.390625-107.132812-23.425781-4.972657-2.300781-9.863282-4.746094-14.660157-7.367188-17.074219-9.238281-32.976562-20.367187-47.429687-33.113281 0-.011719 0-.011719-.007813-.011719-53.207031-46.902343-86.769531-115.574219-86.769531-192.082031 0-141.386719 114.613281-256 256-256s256 114.613281 256 256zm0 0" fill="#ffffff" data-original="#7cbfbf" style="" class=""/>
        <path xmlns="http://www.w3.org/2000/svg" d="m370.609375 253.0625c-2.058594-4.324219-2.574219-9.195312-1.308594-13.8125 2.027344-7.402344 1.164063-13.792969-2.878906-16.457031-4.039063-2.664063-10.25-.933594-16.253906 3.847656-3.746094 2.984375-8.425781 4.429687-13.210938 4.246094-21.222656-.835938-45.820312 13.351562-62.089843 38.039062-21.800782 33.082031-20.386719 72.480469 3.164062 88 23.546875 15.519531 60.308594 1.277344 82.113281-31.804687 16.265625-24.6875 19.601563-52.886719 10.464844-72.058594zm0 0" fill="#94523e" data-original="#94523e" style="" class=""/>
        <path xmlns="http://www.w3.org/2000/svg" d="m278.023438 356.929688c-23.546876-15.515626-24.960938-54.917969-3.15625-88.003907 16.265624-24.683593 40.867187-38.875 62.078124-38.035156 4.78125.183594 9.476563-1.265625 13.210938-4.25 6.003906-4.777344 12.21875-6.515625 16.265625-3.847656-1.449219-.957031-5.394531 2.277343-10.109375 7.902343-2.945312 3.503907-5.964844 6.0625-8.546875 7.320313-11.46875 5.582031-29.234375 24.28125-45.5 48.960937-21.804687 33.089844-32.65625 64.410157-24.242187 69.953126zm0 0" fill="#60291b" data-original="#60291b" style="" class=""/>
        <path xmlns="http://www.w3.org/2000/svg" d="m234.226562 178.902344c-4.628906-1.222656-8.679687-3.980469-11.382812-7.933594-4.335938-6.335938-9.765625-9.808594-14.410156-8.449219-4.644532 1.359375-7.347656 7.214844-7.582032 14.882813-.148437 4.789062-2.070312 9.292968-5.308593 12.820312-14.363281 15.644532-19.457031 43.582032-11.152344 71.957032 11.125 38.027343 42.089844 62.433593 69.15625 54.511718 27.066406-7.917968 39.984375-45.167968 28.859375-83.195312-8.300781-28.375-27.648438-49.160156-48.179688-54.59375zm0 0" fill="#94523e" data-original="#94523e" style="" class=""/>
        <path xmlns="http://www.w3.org/2000/svg" d="m253.546875 316.699219c-27.0625 7.917969-58.027344-16.492188-69.15625-54.523438-8.300781-28.367187-3.210937-56.3125 11.152344-71.945312 3.234375-3.523438 5.164062-8.042969 5.304687-12.820313.238282-7.667968 2.9375-13.535156 7.585938-14.894531-1.667969.488281-1.753906 5.585937-.511719 12.824219.765625 4.511718.761719 8.46875.050781 11.253906-3.160156 12.355469-.390625 38 7.910156 66.367188 11.128907 38.03125 27.992188 66.566406 37.664063 63.738281zm0 0" fill="#60291b" data-original="#60291b" style="" class=""/>
        <path xmlns="http://www.w3.org/2000/svg" d="m185.484375 120.976562c-2.5-4.082031-3.527344-8.875-2.75-13.601562 1.238281-7.574219-.289063-13.835938-4.589844-16.0625-4.296875-2.222656-10.292969.144531-15.761719 5.53125-3.410156 3.359375-7.914062 5.289062-12.691406 5.605469-21.195312 1.394531-44.167968 18.085937-57.757812 44.339843-18.210938 35.1875-12.671875 74.222657 12.375 87.183594 25.042968 12.964844 60.109375-5.050781 78.324218-40.238281 13.589844-26.257813 13.949219-54.648437 2.851563-72.757813zm0 0" fill="#94523e" data-original="#94523e" style="" class=""/>
        <path xmlns="http://www.w3.org/2000/svg" d="m104.304688 233.984375c-25.046876-12.964844-30.582032-52-12.371094-87.191406 13.589844-26.253907 36.566406-42.945313 57.75-44.335938 4.773437-.316406 9.289062-2.253906 12.691406-5.613281 5.46875-5.378906 11.46875-7.757812 15.769531-5.53125-1.539062-.796875-5.125 2.832031-9.222656 8.921875-2.5625 3.792969-5.296875 6.648437-7.734375 8.175781-10.816406 6.753906-26.523438 27.210938-40.113281 53.464844-18.214844 35.1875-25.71875 67.476562-16.769531 72.109375zm0 0" fill="#60291b" data-original="#60291b" style="" class=""/>
        <path xmlns="http://www.w3.org/2000/svg" d="m80.054688 48.347656c-3.101563-2.683594-5.183594-6.332031-5.777344-10.390625-.957032-6.507812-3.832032-11.226562-7.921875-11.925781-4.085938-.699219-8.367188 2.792969-11.433594 8.609375-1.914063 3.628906-5.089844 6.375-8.910156 7.875-16.941407 6.644531-31.367188 26.242187-35.644531 51.214844-5.734376 33.464843 8.929687 63.902343 32.75 67.984375 23.820312 4.078125 47.777343-19.742188 53.507812-53.210938 4.277344-24.96875-2.800781-48.25-16.570312-60.15625zm0 0" fill="#94523e" data-original="#94523e" style="" class=""/>
        <path xmlns="http://www.w3.org/2000/svg" d="m43.113281 161.71875c-23.816406-4.078125-38.480469-34.519531-32.746093-67.988281 4.273437-24.96875 18.703124-44.570313 35.640624-51.207031 3.816407-1.5 7-4.253907 8.90625-7.878907 3.070313-5.816406 7.351563-9.316406 11.441407-8.617187-1.464844-.25-3.449219 3.644531-5.214844 9.683594-1.105469 3.761718-2.597656 6.804687-4.191406 8.683593-7.078125 8.328125-14.59375 29.113281-18.871094 54.082031-5.730469 33.46875-3.476563 61.785157 5.035156 63.242188zm0 0" fill="#60291b" data-original="#60291b" style="" class=""/>
        <path xmlns="http://www.w3.org/2000/svg" d="m148.867188 488.574219c-22.683594-10.472657-43.582032-24.160157-62.097657-40.492188-2.445312-5.777343-4.398437-12.003906-5.757812-18.578125-5.988281-28.953125 1.335937-56.382812 16.917969-70.820312 3.507812-3.25 5.785156-7.585938 6.320312-12.351563.855469-7.617187 4.023438-13.238281 8.753906-14.222656 4.746094-.980469 9.875 2.925781 13.679688 9.582031 2.382812 4.160156 6.195312 7.242188 10.710937 8.828125 20.03125 7.074219 37.636719 29.351563 43.625 58.308594 7.699219 37.207031-6.605469 71.929687-32.152343 79.746094zm0 0" fill="#94523e" data-original="#94523e" style="" class=""/>
        <path xmlns="http://www.w3.org/2000/svg" d="m134.207031 481.207031c-17.074219-9.238281-32.976562-20.367187-47.429687-33.113281 0-.011719 0-.011719-.007813-.011719-2.445312-5.789062-4.398437-12.003906-5.757812-18.578125-5.988281-28.941406 1.335937-56.382812 16.90625-70.8125 3.511719-3.25 5.796875-7.59375 6.320312-12.347656.859375-7.628906 4.023438-13.25 8.765625-14.234375-1.703125.355469-2.191406 5.425781-1.542968 12.738281.40625 4.566406.082031 8.503906-.859376 11.222656-4.136718 12.058594-3.449218 37.847657 2.539063 66.789063 5.277344 25.507813 13.34375 47.105469 21.066406 58.347656zm0 0" fill="#60291b" data-original="#60291b" style="" class=""/>
        <path xmlns="http://www.w3.org/2000/svg" d="m510.976562 279.082031c-3.082031 34.492188-13.007812 67.019531-28.402343 96.203125-9.933594-2.183594-20.113281-6.28125-29.832031-12.308594-25.105469-15.609374-39.945313-39.820312-39.671876-61.054687.0625-4.792969-1.515624-9.433594-4.597656-13.089844-4.945312-5.875-6.835937-12.039062-4.273437-16.15625 2.546875-4.105469 8.910156-5.140625 16.371093-3.3125 4.652344 1.140625 9.507813.503907 13.773438-1.671875 18.921875-9.644531 47.199219-7.0625 72.304688 8.546875 1.484374.921875 2.925781 1.871094 4.328124 2.84375zm0 0" fill="#94523e" data-original="#94523e" style="" class=""/>
        <path xmlns="http://www.w3.org/2000/svg" d="m494.695312 348.703125c-3.542968 9.121094-7.59375 17.992187-12.121093 26.582031-9.933594-2.183594-20.113281-6.28125-29.832031-12.308594-25.105469-15.609374-39.945313-39.820312-39.671876-61.054687.0625-4.773437-1.515624-9.433594-4.597656-13.089844-4.933594-5.875-6.835937-12.039062-4.273437-16.15625-.921875 1.472657 2.414062 5.339844 8.167969 9.894531 3.574218 2.855469 6.21875 5.8125 7.546874 8.359376 5.882813 11.308593 25.046876 28.570312 50.152344 44.179687 8.476563 5.265625 16.8125 9.84375 24.628906 13.59375zm0 0" fill="#60291b" data-original="#60291b" style="" class=""/>
        <path xmlns="http://www.w3.org/2000/svg" d="m364.835938 465.074219c-2.046876 9.9375-5.476563 19.078125-9.882813 27.09375-24.066406 10.105469-50.011719 16.625-77.144531 18.914062-12.824219-15.171875-18.433594-40.304687-12.980469-66.6875 8.027344-38.808593 36.917969-65.628906 64.535156-59.914062 27.617188 5.707031 43.5 41.796875 35.472657 80.59375zm0 0" fill="#94523e" data-original="#94523e" style="" class=""/>
        <path xmlns="http://www.w3.org/2000/svg" d="m329.363281 384.46875c-9.863281-2.035156-24.378906 27.765625-32.402343 66.570312-4.839844 23.367188-6.21875 44.679688-4.390626 58.371094-4.878906.699219-9.789062 1.253906-14.753906 1.671875-12.832031-15.164062-18.441406-40.304687-12.988281-66.6875 8.027344-38.808593 36.929687-65.628906 64.535156-59.925781zm0 0" fill="#60291b" data-original="#60291b" style="" class=""/>
        <path xmlns="http://www.w3.org/2000/svg" d="m410.15625 156.953125c-4.75-.625-9.542969.390625-13.542969 3.019531-6.414062 4.214844-12.757812 5.371094-16.539062 2.347656-3.78125-3.019531-4.058594-9.460937-1.363281-16.648437 1.679687-4.480469 1.609374-9.382813-.046876-13.875-7.347656-19.925781-1.453124-47.703125 16.996094-70.800781 24.730469-30.957032 62.640625-41.785156 84.675782-24.183594 22.03125 17.601562 19.847656 56.964844-4.882813 87.921875-18.453125 23.101563-44.242187 34.984375-65.296875 32.21875zm0 0" fill="#94523e" data-original="#94523e" style="" class=""/>
        <path xmlns="http://www.w3.org/2000/svg" d="m480.335938 36.804688c-22.035157-17.597657-59.945313-6.769532-84.675782 24.191406-18.449218 23.09375-24.347656 50.878906-16.996094 70.792968 1.65625 4.488282 1.726563 9.402344.042969 13.875-2.691406 7.1875-2.421875 13.636719 1.363281 16.660157-1.355468-1.085938.5-5.835938 4.394532-12.058594 2.421875-3.886719 3.921875-7.546875 4.320312-10.390625 1.765625-12.632812 14.0625-35.308594 32.511719-58.402344 24.730469-30.960937 51.164063-50.957031 59.039063-44.667968zm0 0" fill="#60291b" data-original="#60291b" style="" class=""/>
    </g>
</svg>