<svg xmlns="http://www.w3.org/2000/svg"
    xmlns:xlink="http://www.w3.org/1999/xlink" version="1.1" id="Capa_1" x="0px" y="0px" viewBox="0 0 512 512" style="enable-background:new 0 0 512 512;" xml:space="preserve">
    <path style="fill:#00C47A;" d="M233.482,0h-0.343c-17.381,0-31.471,14.09-31.471,31.471l0,0c0,6.213,1.839,12.287,5.285,17.456  l16.048,24.072V177h33l21.333-70.333L256,9.508C250.148,3.508,242.065,0,233.482,0z"/>
    <path style="fill:#00935C;" d="M287.001,59.667l-26.506-44.343c-1.277-2.137-2.797-4.076-4.494-5.816V177h31V59.667z"/>
    <path style="fill:#992300;" d="M411.106,185.489c-15.874-19.998-39.58-32.551-65.042-34.442  c-25.461-1.89-50.763,7.023-69.416,24.456s-29.256,42.075-29.089,67.606l2.653,196.596c0.132,18.332,7.098,35.8,19.616,49.195  c12.53,13.407,29.508,21.539,47.808,22.898l0,0c1.818,0.135,3.63,0.202,5.44,0.202c16.397,0,32.282-5.511,45.226-15.786  c14.324-11.37,23.781-27.564,26.647-45.621l34.882-193.596l0.059-0.347C433.826,231.424,426.98,205.487,411.106,185.489z"/>
    <path style="fill:#CC2F00;" d="M235.351,175.503c-18.654-17.434-43.958-26.35-69.416-24.456  c-25.462,1.891-49.168,14.445-65.042,34.442S78.174,231.423,82.11,256.65l34.94,193.943c2.865,18.056,12.323,34.251,26.646,45.621  C156.643,506.49,172.525,512,188.924,512c1.808,0,3.623-0.067,5.439-0.202l0,0c18.299-1.359,35.278-9.491,47.808-22.898  c12.518-13.395,19.483-30.863,19.616-49.195l2.652-196.492l0.001-0.104C264.607,217.578,254.004,192.936,235.351,175.503z"/>
    <path style="fill:#FF4F19;" d="M188.586,163.864c-17.311,18.767-26.059,44.126-24.002,69.575l18.838,211.666  c1.491,18.269,9.731,35.173,23.206,47.602C220.116,505.148,237.65,512,256,512l21.333-202.667l-21.333-175  C230.468,134.333,205.897,145.097,188.586,163.864z"/>
    <path style="fill:#CC2F00;" d="M323.414,163.864c-17.311-18.767-41.882-29.53-67.414-29.53V512c18.35,0,35.884-6.852,49.373-19.293  c13.472-12.427,21.711-29.326,23.204-47.59l18.828-211.557l0.01-0.121C349.473,207.99,340.725,182.631,323.414,163.864z"/>
</svg>