<svg xmlns="http://www.w3.org/2000/svg" height="512pt" viewBox="0 -156 512.00049 512" width="512pt">
    <path d="m274.894531 14.433594h-114.210937v174.59375h114.210937c1.523438 0 2.757813-1.234375 2.757813-2.757813v-169.078125c0-1.523437-1.234375-2.757812-2.757813-2.757812zm0 0" fill="#ffee58"/>
    <path d="m274.894531 14.433594h-37.242187v112.984375c0 22.980469-18.628906 41.609375-41.609375 41.609375h-35.359375v20h114.210937c1.523438 0 2.757813-1.234375 2.757813-2.757813v-169.078125c0-1.523437-1.234375-2.757812-2.757813-2.757812zm0 0" fill="#ffd54f"/>
    <path d="m402.285156 41.996094 20.742188 20.738281c1.5625 1.566406 1.5625 4.105469 0 5.671875l-117.789063 117.785156c-1.566406 1.566406-4.105469 1.566406-5.671875 0l-20.738281-20.738281c-1.566406-1.566406-1.566406-4.105469 0-5.671875l117.785156-117.785156c1.566407-1.566406 4.105469-1.566406 5.671875 0zm0 0" fill="#ffee58"/>
    <path d="m423.027344 62.734375-20.742188-20.738281c-1.566406-1.566406-4.105468-1.566406-5.671875 0l-9.664062 9.664062 2.296875 2.296875c6.414062 6.414063 6.414062 16.8125 0 23.226563l-99.34375 99.34375 9.664062 9.664062c1.566406 1.566406 4.105469 1.566406 5.671875 0l117.789063-117.785156c1.5625-1.566406 1.5625-4.105469 0-5.671875zm0 0" fill="#ffd54f"/>
    <path d="m337.40625 185.015625v-29.328125c0-2.214844 1.792969-4.011719 4.007812-4.011719h166.574219c2.214844 0 4.011719 1.796875 4.011719 4.011719v29.328125c0 2.214844-1.796875 4.011719-4.011719 4.011719h-166.574219c-2.214843 0-4.007812-1.796875-4.007812-4.011719zm0 0" fill="#ffee58"/>
    <path d="m507.988281 151.675781h-35.988281v.929688c0 9.070312-7.351562 16.421875-16.421875 16.421875h-118.171875v15.988281c0 2.214844 1.792969 4.011719 4.007812 4.011719h166.574219c2.214844 0 4.011719-1.796875 4.011719-4.011719v-29.328125c0-2.214844-1.796875-4.011719-4.011719-4.011719zm0 0" fill="#ffd54f"/>
    <path d="m256.207031 143.875c-4.707031-4.707031-13.371093-3.675781-19.351562 2.308594-5.984375 5.980468-7.019531 14.648437-2.3125 19.355468 4.707031 4.707032 13.375 3.671876 19.355469-2.308593 5.984374-5.984375 7.015624-14.648438 2.308593-19.355469zm0 0" fill="#ffee58"/>
    <path d="m246.679688 47.847656c0-6.152344-6.34375-11.144531-14.167969-11.144531-7.820313 0-14.164063 4.992187-14.164063 11.144531 0 6.15625 6.34375 11.148438 14.164063 11.148438 7.824219 0 14.167969-4.992188 14.167969-11.148438zm0 0" fill="#fff8b1"/>
    <path d="m237.652344 37.472656v20.753906c5.28125-1.621093 9.023437-5.652343 9.023437-10.378906 0-4.726562-3.742187-8.753906-9.023437-10.375zm0 0" fill="#ffee58"/>
    <path d="m223.808594 87.8125c-5.535156-5.53125-13.546875-6.488281-17.898438-2.132812-4.351562 4.351562-3.394531 12.363281 2.136719 17.894531s13.542969 6.488281 17.894531 2.136719c4.351563-4.351563 3.398438-12.367188-2.132812-17.898438zm0 0" fill="#fff8b1"/>
    <path d="m207.902344 145.058594c0-6.992188-4.460938-12.664063-9.964844-12.664063s-9.964844 5.671875-9.964844 12.664063c0 6.996094 4.460938 12.664062 9.964844 12.664062s9.964844-5.667968 9.964844-12.664062zm0 0" fill="#fff8b1"/>
    <path d="m72.847656 189.554688v-177.785157h-59.007812c-3.5 0-6.339844 2.839844-6.339844 6.339844v167.242187c0 3.5 2.839844 6.339844 6.339844 6.339844h59.214844c-.132813-.691406-.207032-1.40625-.207032-2.136718zm0 0" fill="#7fcd91"/>
    <path d="m72.847656 171.691406h-65.347656v13.660156c0 3.5 2.839844 6.339844 6.339844 6.339844h59.214844c-.132813-.691406-.207032-1.40625-.207032-2.136718zm0 0" fill="#52b96a"/>
    <path d="m95.335938 11.769531v177.785157c0 .730468-.074219 1.445312-.207032 2.136718h65.554688v-179.921875zm0 0" fill="#7fcd91"/>
    <path d="m120.683594 11.769531v140.171875c0 10.90625-8.84375 19.75-19.75 19.75h-5.597656v17.863282c0 .730468-.074219 1.445312-.207032 2.136718h65.554688v-179.921875zm0 0" fill="#52b96a"/>
    <path d="m160.683594 91.238281c4.21875 0 7.625-3.484375 7.496094-7.730469-.121094-4.105468-3.703126-7.269531-7.808594-7.269531h-62.785156c-1.242188 0-2.25-1.007812-2.25-2.25v-16.484375c0-1.242187 1.007812-2.25 2.25-2.25h62.785156c4.105468 0 7.6875-3.164062 7.808594-7.269531.128906-4.246094-3.277344-7.730469-7.496094-7.730469h-63.097656c-1.242188 0-2.25-1.003906-2.25-2.246094v-26.390624c0-6.191407-4.84375-11.503907-11.03125-11.61328175-6.308594-.11718725-11.457032 4.96093775-11.457032 11.24218775v26.761718c0 1.242188-1.007812 2.246094-2.25 2.246094h-62.78125c-4.109375 0-7.691406 3.164063-7.81249975 7.269532-.12890625 4.246093 3.27734375 7.730468 7.49609375 7.730468h63.097656c1.242188 0 2.25 1.007813 2.25 2.25v16.484375c0 1.242188-1.007812 2.25-2.25 2.25h-62.78125c-4.109375 0-7.691406 3.164063-7.81249975 7.269531-.12890625 4.246094 3.27734375 7.730469 7.49609375 7.730469h63.097656c1.242188 0 2.25 1.007813 2.25 2.25v16.484375c0 1.242188-1.007812 2.25-2.25 2.25h-62.78125c-4.109375 0-7.691406 3.164063-7.81249975 7.265625-.12890625 4.25 3.27734375 7.734375 7.49609375 7.734375h63.097656c1.242188 0 2.25 1.003906 2.25 2.246094v16.488281c0 1.242188-1.007812 2.25-2.25 2.25h-62.78125c-4.109375 0-7.691406 3.164063-7.81249975 7.265625-.12890625 4.25 3.27734375 7.734375 7.49609375 7.734375h63.097656c1.242188 0 2.25 1.003907 2.25 2.246094v23.726563c0 6.191406 4.84375 11.503906 11.03125 11.617187 6.308594.113281 11.457032-4.964844 11.457032-11.246094v-24.097656c0-1.242187 1.007812-2.25 2.25-2.25h62.78125c4.109374 0 7.6875-3.164063 7.8125-7.269531.128906-4.246094-3.277344-7.730469-7.496094-7.730469h-63.097656c-1.242188 0-2.25-1.007813-2.25-2.246094v-16.488281c0-1.242188 1.007812-2.25 2.25-2.25h62.785156c4.105468 0 7.6875-3.164062 7.808594-7.269531.128906-4.246094-3.277344-7.730469-7.496094-7.730469h-63.097656c-1.242188 0-2.25-1.003906-2.25-2.246094v-16.488281c0-1.238281 1.007812-2.246094 2.25-2.246094zm0 0" fill="#aedb81"/>
    <path d="m160.371094 163.207031h-43.226563c2.226563-3.195312 3.539063-7.074219 3.539063-11.265625v-3.734375h40c4.21875 0 7.625 3.480469 7.496094 7.730469-.121094 4.105469-3.703126 7.269531-7.808594 7.269531zm.3125-50.984375h-40v15h39.6875c4.105468 0 7.6875-3.164062 7.808594-7.269531.128906-4.246094-3.277344-7.730469-7.496094-7.730469zm-.3125-35.984375h-39.6875v15h40c4.21875 0 7.625-3.484375 7.496094-7.730469-.121094-4.105468-3.703126-7.269531-7.808594-7.269531zm.3125-35.984375h-40v15h39.6875c4.105468 0 7.6875-3.164062 7.808594-7.269531.128906-4.246094-3.277344-7.730469-7.496094-7.730469zm-76.800782 160.542969c6.304688.117187 11.453126-4.960937 11.453126-11.242187v-17.863282h-22.488282v17.488282c0 6.191406 4.84375 11.503906 11.035156 11.617187zm0 0" fill="#8ecb51"/>
</svg>