<svg xmlns="http://www.w3.org/2000/svg" width="512" height="512" viewBox="0 0 128 128">
    <g>
        <path d="M30,49.687c-.133,20.071,2.5,36.337,11,54.566h0c-8.5-18.229-19.267-30.7-34.728-43.5C.383,73.935.113,91.3,6.244,104.45c8.371,17.952,27.974,26.529,43.784,19.157S71.869,95.7,63.5,77.752C57.367,64.605,43.889,53.647,30,49.687Z" fill="#ffd4a2"/>
        <path d="M30,49.687c-.133,20.071,2.5,36.337,11,54.566h0c-8.5-18.229-19.267-30.7-34.728-43.5C.383,73.935.113,91.3,6.244,104.45c8.371,17.952,27.974,26.529,43.784,19.157S71.869,95.7,63.5,77.752C57.367,64.605,43.889,53.647,30,49.687Z" fill="#ffe7cf"/>
        <path d="M41,104.253C33.292,87.716,30.417,72.784,30.048,55.171c-5.47-3.529-12.457-7.467-14.886-6.335s-3.9,9.017-4.716,15.476C23.7,75.916,33.292,87.716,41,104.253Z" fill="#8cd96b"/>
        <path d="M98,2.8c.133,20.071-2.5,36.337-11,54.566h0c8.5-18.229,19.267-30.7,34.728-43.5,5.892,13.184,6.162,30.552.031,43.7-8.371,17.952-27.974,26.529-43.784,19.157S56.131,48.816,64.5,30.864C70.633,17.717,84.111,6.759,98,2.8Z" fill="#ffd4a2"/>
        <path d="M98,2.8c.133,20.071-2.5,36.337-11,54.566h0c8.5-18.229,19.267-30.7,34.728-43.5,5.892,13.184,6.162,30.552.031,43.7-8.371,17.952-27.974,26.529-43.784,19.157S56.131,48.816,64.5,30.864C70.633,17.717,84.111,6.759,98,2.8Z" fill="#ffe7cf"/>
        <path d="M87,57.365C94.708,40.828,97.583,25.9,97.952,8.283c5.47-3.529,12.457-7.467,14.886-6.335s3.9,9.017,4.716,15.476C104.3,29.028,94.708,40.828,87,57.365Z" fill="#8cd96b"/>
    </g>
</svg>