<svg xmlns="http://www.w3.org/2000/svg" id="Capa_1" enable-background="new 0 0 508.478 508.478" height="512" viewBox="0 0 508.478 508.478" width="512">
    <path d="m451.296 338.391c-2.829-2.11-70.014-51.453-134.8-31.532-21.152 6.504-35.722 18.298-43.304 35.055-13.836 30.58.722 67.715 5.513 78.367s22.916 46.182 54.977 56.118c5.623 1.743 11.338 2.612 17.134 2.612 12.311 0 24.975-3.928 37.826-11.754 57.889-35.257 65.544-118.264 65.842-121.779.232-2.754-.973-5.434-3.188-7.087z" fill="#f39842"/>
    <path d="m451.296 338.391c-.549-.409-3.529-2.601-8.435-5.715-5.939 27.773-21.807 76.167-62.508 100.956-12.852 7.826-25.516 11.754-37.826 11.754-5.796 0-11.511-.869-17.134-2.612-32.061-9.937-50.186-45.466-54.977-56.118-.687-1.527-1.577-3.613-2.552-6.13 1.785 17.949 8.013 33.467 10.842 39.755 4.791 10.652 22.916 46.182 54.977 56.118 5.623 1.743 11.338 2.612 17.134 2.612 12.311 0 24.975-3.928 37.826-11.754 57.889-35.257 65.544-118.264 65.842-121.779.231-2.754-.974-5.434-3.189-7.087z" fill="#f07e12"/>
    <path d="m395.347 465.173c-1.005-2.991-3.673-5.112-6.813-5.416-.548-.053-51.541-5.325-64.276-33.803 15.009-7.389 49.408-26.086 56.775-45.496.753-1.983.687-4.186-.184-6.12-.87-1.936-2.474-3.445-4.457-4.198-19.406-7.365-56.218 5.965-71.706 12.293-12.79-28.354 17.03-70.077 17.35-70.518 1.856-2.551 2.04-5.955.469-8.69s-4.609-4.286-7.743-3.975c-40.936 4.146-56.719 23.963-62.751 39.857-7.875 20.75-2.887 45.011 6.961 59.604-20.945 25.538-103.411 55.215-135.1 64.964-2.193.675-3.991 2.259-4.937 4.349-.946 2.091-.949 4.487-.007 6.579l13.126 29.184c1.942 4.319 7.404 6.02 11.457 3.552 28.32-17.243 105.251-59.276 138.24-57.981 4.384 17.051 19.227 36.878 39.977 44.753 15.897 6.032 41.196 7.371 71.456-20.506 2.32-2.139 3.167-5.441 2.163-8.432z" fill="#7c616d"/>
    <path d="m132.054 503.787c1.942 4.319 7.404 6.021 11.457 3.552 28.32-17.243 105.251-59.276 138.24-57.981 4.384 17.051 19.227 36.878 39.977 44.753 14.615 5.546 37.181 7.105 64.238-14.338-20.713 2.426-42.017 2.836-52.283-3.373-23.459-14.188-31.459-46.188-31.459-46.188s-93.232 5.839-175.262 62.252z" fill="#5c3948"/>
    <path d="m468.837 96.478c-.391-2.736-2.166-5.077-4.695-6.191-3.229-1.423-79.766-34.448-138.438-.509-19.156 11.081-30.711 25.842-34.343 43.873-6.628 32.905 15.885 65.828 22.941 75.135 7.058 9.307 32.685 39.867 66.158 42.364 1.476.109 2.944.165 4.406.165 16.714 0 32.541-7.184 47.105-21.396 48.513-47.336 37.364-129.946 36.866-133.441z" fill="#f39842"/>
    <path d="m468.837 96.478c-.391-2.736-2.166-5.077-4.695-6.191-.646-.285-4.229-1.834-10.008-3.858.778 27.751-2.961 80.786-38.222 115.192-14.564 14.213-30.392 21.396-47.105 21.396-1.462 0-2.931-.056-4.406-.165-33.474-2.497-59.101-33.058-66.158-42.364-.25-.331-.525-.698-.813-1.087 5.716 13.823 13.288 24.655 16.874 29.384 7.058 9.307 32.685 39.867 66.158 42.364 1.476.109 2.944.165 4.406.165 16.714 0 32.541-7.184 47.105-21.396 48.511-47.335 37.362-129.945 36.864-133.44z" fill="#f07e12"/>
    <path d="m438.039 226.385c-1.648-2.689-4.726-4.164-7.854-3.75-.546.068-51.423 6.367-70.219-18.532 12.971-10.564 42.303-36.499 45.131-57.066.289-2.103-.27-4.233-1.551-5.924-1.282-1.69-3.184-2.803-5.286-3.092-20.572-2.824-53.449 18.416-67.123 28.057-18.822-24.766.886-72.112 1.098-72.612 1.237-2.903.652-6.262-1.492-8.575-2.145-2.314-5.447-3.148-8.438-2.138-38.964 13.218-49.902 36.07-52.217 52.913-3.022 21.988 7.276 44.512 20.146 56.524-14.687 29.584-88.399 76.994-117.097 93.599-1.986 1.149-3.383 3.096-3.836 5.346-.453 2.249.082 4.585 1.468 6.413l19.335 25.498c1.386 1.828 3.491 2.974 5.78 3.144.199.015.397.022.595.022 2.08 0 4.087-.811 5.586-2.274 23.727-23.152 89.259-81.339 121.722-87.498 8.095 15.634 27.004 31.629 48.992 34.652 16.838 2.314 41.799-2.051 65.04-36.005 1.785-2.605 1.87-6.012.22-8.702z" fill="#7c616d"/>
    <path d="m374.223 246.211c-40-8-48-32-48-32s-103.979 51.996-145.036 97.073l8.919 11.761c1.386 1.828 3.491 2.974 5.78 3.144.199.015.397.022.595.022 2.08 0 4.087-.811 5.586-2.274 23.727-23.152 89.259-81.339 121.722-87.498 8.095 15.634 27.004 31.629 48.992 34.652 15.515 2.133 37.925-1.426 59.532-28.557-20.013 6.851-42.664 6.762-58.09 3.677z" fill="#5c3948"/>
    <path d="m165.129 1.708c-2.173-1.707-5.073-2.171-7.673-1.227-3.316 1.205-81.446 30.265-100.367 95.349-6.178 21.251-4.32 39.903 5.523 55.441 17.962 28.355 56.99 36.576 68.523 38.42 4.151.664 11.943 1.653 21.427 1.653 16.865 0 39.077-3.13 55.661-16.789 14.197-11.694 21.779-28.837 22.536-50.955 2.319-67.739-62.854-119.712-65.63-121.892z" fill="#f39842"/>
    <path d="m162.539 187.902c-11.534-1.844-50.561-10.064-68.523-38.42-9.843-15.538-11.701-34.19-5.523-55.441 13.543-46.584 57.414-74.709 82.479-87.378-3.243-2.89-5.387-4.597-5.842-4.955-2.173-1.707-5.073-2.171-7.673-1.227-3.317 1.205-81.447 30.265-100.368 95.349-6.178 21.251-4.32 39.903 5.523 55.441 17.962 28.355 56.99 36.576 68.523 38.42 4.151.664 11.943 1.653 21.427 1.653 6.886 0 14.663-.523 22.585-2.07-5.436-.341-9.837-.928-12.608-1.372z" fill="#f07e12"/>
    <path d="m238.557 123.291c-.513-3.113-2.807-5.634-5.858-6.437-3.052-.805-6.29.262-8.268 2.721-.346.429-32.754 40.151-63.543 35.16 2.066-16.602 5.326-55.617-6.852-72.432-1.245-1.719-3.121-2.872-5.216-3.207-2.095-.337-4.238.176-5.956 1.421-16.813 12.177-25.882 50.26-29.096 66.679-30.721-4.879-49.219-52.711-49.412-53.219-1.113-2.952-3.857-4.975-7.007-5.163-3.143-.186-6.116 1.491-7.573 4.289-19.011 36.489-11.114 60.563-1.141 74.332 13.019 17.976 36.043 27.099 53.638 26.907 9.843 31.526-10.631 116.744-19.883 148.583-.64 2.203-.304 4.575.924 6.514s3.229 3.256 5.495 3.618l31.599 5.053c.421.067.843.101 1.263.101 1.842 0 3.644-.637 5.086-1.825 1.771-1.458 2.831-3.607 2.909-5.9 1.138-33.136 8.258-120.489 27.443-147.374 16.657 5.698 41.379 4.179 59.354-8.84 13.769-9.973 28.779-30.383 22.094-70.981z" fill="#7c616d"/>
    <path d="m110.223 182.211c-42.029-9.34-59.519-45.935-66.802-74.787-10.433 28.575-3.39 48.132 5.214 60.012 13.019 17.976 36.043 27.099 53.638 26.907 9.843 31.526-10.631 116.744-19.883 148.583-.64 2.203-.304 4.575.924 6.514s3.229 3.256 5.495 3.618l15.684 2.508c32.674-72.282 5.73-173.355 5.73-173.355z" fill="#5c3948"/>
</svg>