<svg xmlns="http://www.w3.org/2000/svg" id="icons" enable-background="new 0 0 64 64" height="512" viewBox="0 0 64 64" width="512">
    <path d="m32.005 52.556c-.259 0-.518-.1-.713-.299-.388-.394-.382-1.027.012-1.414l10.01-9.841c.393-.389 1.027-.383 1.414.012.388.394.382 1.027-.012 1.414l-10.01 9.841c-.194.191-.448.287-.701.287z" fill="#8cc152"/>
    <path d="m45.852 32.655-2.131-3.232c-.006-.009-.016-.014-.022-.022-.038-.054-.092-.095-.141-.142-.049-.045-.092-.095-.146-.129-.01-.007-.016-.017-.025-.022-.047-.027-.099-.031-.147-.05-.063-.023-.121-.052-.188-.063-.071-.013-.14-.006-.211-.003-.057.003-.112-.001-.168.012-.076.017-.144.052-.213.085-.041.02-.085.024-.124.05-.009.006-.013.016-.021.021-.055.038-.096.092-.142.141-.047.05-.097.093-.132.149-.006.009-.015.014-.021.023l-.656 1.136-2.317-3.098c-.002-.003-.006-.005-.009-.008-.057-.074-.133-.131-.209-.188-.029-.021-.052-.054-.083-.071-.033-.02-.074-.023-.109-.038-.085-.037-.17-.074-.261-.086-.005-.001-.008-.003-.012-.004-.045-.005-.086.01-.13.011-.083.001-.165-.002-.247.02-.085.023-.158.068-.233.111-.035.021-.073.026-.106.051-.003.002-.004.006-.007.008-.084.063-.149.146-.21.234-.014.021-.037.036-.05.058-.024.043-.031.097-.05.144-.029.075-.063.147-.074.227-.001.005-.003.008-.004.013l-.459 3.844-1.135-.657c-.01-.006-.021-.005-.029-.01-.056-.03-.119-.043-.181-.063-.068-.021-.134-.047-.203-.054-.01-.001-.018-.006-.027-.007-.037-.002-.07.014-.107.017-.09.004-.178.012-.264.04-.031.011-.057.029-.087.042-.087.039-.169.081-.242.143-.037.031-.063.071-.095.107-.044.05-.097.089-.131.148-.007.012-.006.024-.012.036-.028.051-.039.11-.058.168-.021.069-.049.136-.056.207-.001.011-.007.019-.008.029l-.19 3.158c-.001.018.007.033.007.051-.001.071.016.139.029.208.012.058.018.115.039.169.024.063.065.117.104.176.033.051.063.103.104.146.014.014.02.033.034.047l6.899 6.422c.193.179.438.268.682.268.268 0 .535-.107.732-.318.376-.404.354-1.037-.051-1.414l-.168-.156 2.459-6.555c.059.011.117.021.178.021.188 0 .38-.054.55-.165.461-.304.588-.924.285-1.386z" fill="#8cc152"/>
    <path d="m56.364 45.838c.038-.069.08-.135.101-.212s.017-.155.019-.234c.002-.048.018-.093.012-.142 0-.004-.003-.008-.004-.012-.012-.085-.047-.164-.08-.244-.017-.041-.021-.089-.044-.127-.015-.024-.04-.042-.057-.065-.059-.084-.121-.165-.202-.227-.003-.003-.004-.006-.007-.008l-3.098-2.318 1.136-.655c.011-.006.017-.018.027-.023.087-.055.165-.124.233-.207.017-.02.034-.036.049-.057.008-.011.019-.019.025-.029.026-.04.031-.086.052-.128.031-.067.066-.132.082-.204.014-.063.011-.122.014-.185.002-.066.009-.13-.003-.195-.011-.07-.04-.133-.066-.199-.019-.046-.021-.095-.047-.139-.006-.01-.016-.015-.021-.024-.034-.056-.085-.099-.13-.147-.047-.05-.089-.104-.144-.142-.009-.006-.013-.016-.021-.021l-3.233-2.131c-.46-.303-1.08-.176-1.385.285-.178.27-.192.589-.094.872l-6.493 2.433-.268-.288c-.377-.403-1.009-.426-1.414-.051-.404.377-.427 1.01-.051 1.414l6.422 6.9c.011.012.026.016.037.026.054.053.119.088.183.128.047.028.087.067.137.088.094.038.196.052.301.061.025.002.05.016.075.016h.002s.001 0 .002 0c.021 0 .04-.001.061-.002l3.157-.189c.015-.001.027-.01.042-.011.1-.011.197-.036.294-.078.022-.01.047-.017.068-.028.013-.007.025-.009.037-.016.043-.025.07-.065.108-.096.056-.045.113-.085.159-.141.041-.051.066-.107.097-.164s.064-.108.083-.171c.021-.069.024-.141.03-.213.004-.048.022-.092.02-.141-.001-.011-.007-.02-.008-.03-.006-.066-.032-.13-.052-.195-.02-.063-.031-.127-.063-.183-.005-.011-.005-.022-.011-.033l-.656-1.135 3.843-.459c.077-.009.142-.045.211-.069.045-.016.091-.021.133-.044.13-.068.242-.159.33-.272.002-.004.006-.005.009-.008.03-.041.038-.088.061-.131z" fill="#8cc152"/>
    <path d="m55.737 34.675c0-.011.006-.02.006-.03 0-.05-.021-.092-.028-.14-.011-.072-.017-.143-.043-.211-.022-.061-.06-.11-.093-.165-.034-.055-.063-.11-.106-.158-.049-.053-.108-.089-.168-.13-.04-.028-.069-.067-.114-.09-.01-.005-.021-.004-.03-.008-.062-.028-.13-.038-.196-.053-.063-.015-.125-.036-.188-.038-.011-.001-.021-.007-.032-.007 0 0 0 0-.001 0l-1.313.001 1.524-3.556c.002-.004.001-.009.003-.013.033-.082.042-.17.054-.258.005-.042.023-.083.023-.124 0-.038-.018-.076-.021-.114-.011-.092-.021-.183-.057-.268-.001-.004 0-.008-.002-.012-.019-.043-.053-.071-.075-.109-.042-.071-.081-.143-.14-.202s-.131-.097-.201-.139c-.038-.023-.066-.057-.108-.075-.004-.002-.008-.001-.012-.003-.091-.038-.189-.051-.289-.061-.031-.003-.062-.018-.093-.018-.041 0-.081.018-.121.022-.091.012-.182.021-.265.057-.003.001-.006.001-.009.002l-3.557 1.524v-1.314c0-.011-.006-.02-.006-.03-.002-.068-.024-.134-.041-.201-.016-.063-.023-.127-.05-.185-.005-.011-.004-.021-.009-.032-.023-.047-.063-.077-.093-.118-.04-.058-.076-.115-.127-.163-.048-.044-.104-.072-.159-.106-.054-.034-.104-.07-.166-.094-.064-.024-.133-.03-.201-.04-.051-.008-.096-.03-.148-.03-.012 0-.021.006-.032.007-.063.002-.126.023-.189.038-.066.016-.134.023-.195.052-.01.005-.021.004-.031.009l-2.831 1.418c-.057.028-.095.075-.143.112-.051.037-.104.067-.146.114-.055.061-.089.132-.127.202-.021.04-.056.071-.072.115l-4.236 11.309c-.018.046-.013.094-.022.141-.016.069-.034.137-.034.21 0 .072.019.14.034.209.01.048.005.095.022.142.005.013.014.022.02.034.014.033.035.062.053.094.041.074.087.142.144.201.026.028.055.054.085.079.07.059.146.105.229.143.021.01.034.027.056.035.009.003.018.002.026.005.104.036.212.059.324.059s.221-.022.324-.059c.009-.003.018-.002.026-.005l11.308-4.234c.023-.009.038-.027.06-.037.08-.036.153-.082.223-.139.024-.021.051-.037.072-.06.075-.074.143-.158.192-.258l1.415-2.83c.005-.01.004-.021.009-.031.026-.059.035-.123.051-.188.013-.065.035-.131.037-.198z" fill="#a0d468"/>
    <g fill="#8cc152">
        <path d="m47.108 22.471c0-.06.009-.118-.002-.176-.011-.063-.038-.118-.061-.177-.023-.062-.04-.123-.074-.179-.03-.049-.074-.087-.113-.13-.049-.055-.094-.11-.154-.153-.01-.008-.016-.02-.026-.026-.047-.031-.101-.039-.15-.062-.049-.021-.089-.056-.143-.07l-1.395-.372 1.701-2.576c.021-.033.025-.07.042-.104.032-.063.06-.123.078-.191.018-.066.024-.132.027-.199.003-.039.02-.075.017-.115-.001-.024-.015-.044-.018-.067-.009-.069-.03-.133-.053-.198-.021-.057-.038-.112-.068-.164-.035-.062-.081-.112-.129-.166-.037-.04-.071-.08-.115-.114-.024-.02-.038-.047-.064-.064-.046-.03-.098-.037-.146-.06-.041-.019-.08-.036-.123-.05-.081-.024-.16-.036-.243-.039-.034-.002-.064-.017-.099-.016l-3.08.185.373-1.394c.015-.054.005-.105.01-.158.006-.055.025-.104.022-.16-.001-.014-.009-.024-.01-.037-.008-.076-.034-.144-.058-.215-.018-.051-.027-.104-.053-.151-.041-.079-.102-.144-.162-.209-.023-.024-.041-.054-.066-.076-.073-.063-.161-.107-.252-.147-.029-.014-.054-.031-.084-.042-.02-.007-.034-.021-.056-.027-.063-.018-.127-.008-.19-.012-.044-.004-.083-.021-.128-.021l-2.234.135c-.013.001-.022.008-.035.01-.07.007-.135.032-.202.053-.058.019-.118.029-.171.058-.05.027-.091.069-.136.104-.058.045-.116.086-.162.142-.008.01-.021.014-.028.024l-7.063 9.248-7.064-9.248c-.008-.011-.021-.015-.028-.024-.045-.056-.103-.095-.158-.139-.047-.037-.088-.079-.14-.106-.053-.028-.113-.039-.171-.059-.067-.021-.131-.046-.201-.053-.013-.001-.023-.009-.036-.01l-2.234-.135c-.044-.001-.083.017-.126.021-.064.004-.128-.006-.192.012-.021.006-.037.021-.058.028-.018.007-.032.018-.05.024-.107.044-.205.096-.289.17-.007.006-.011.014-.018.021-.083.077-.155.163-.208.264-.021.039-.028.086-.044.129-.028.076-.056.15-.064.232-.001.014-.009.023-.01.037-.003.056.017.105.022.16.005.053-.005.104.01.158l.372 1.394-3.079-.185c-.033-.001-.063.014-.097.016-.084.003-.165.015-.248.04-.036.012-.068.026-.103.042-.055.023-.112.032-.163.066-.029.02-.045.049-.071.07-.034.027-.061.06-.091.091-.057.06-.109.119-.149.189-.026.047-.042.098-.062.149-.024.068-.047.136-.057.208-.003.023-.017.043-.018.066-.002.04.014.076.017.115.003.067.01.133.027.199.019.068.046.129.078.191.017.034.021.071.042.104l1.701 2.576-1.395.372c-.053.014-.093.048-.141.069-.051.023-.104.031-.152.063-.011.007-.016.019-.026.026-.061.043-.105.099-.154.153-.039.043-.083.081-.113.13-.034.056-.051.117-.074.179-.022.059-.05.114-.061.177-.011.058-.002.116-.002.176 0 .072-.003.142.014.213.003.013-.001.025.002.038.025.095.069.178.117.257.007.012.007.024.015.036l.006.009c.001.002.002.003.003.005l1.224 1.853c.01.015.023.025.034.04.015.02.03.035.046.053.064.075.137.14.217.191.02.013.036.027.056.039.097.052.199.085.306.104.019.004.033.016.052.018l12.891 1.666c.008.001.016.001.023.002.014 0 .026.006.04.006.011 0 .021-.002.033-.002.011 0 .021.002.032.002.013 0 .026-.006.039-.006.008-.001.017-.001.024-.002l12.891-1.666c.019-.002.033-.014.051-.018.107-.019.21-.052.307-.104.02-.012.036-.026.055-.039.081-.052.153-.116.218-.191.016-.018.031-.033.046-.053.011-.015.024-.025.034-.04l1.224-1.853c.001-.002.002-.003.003-.005l.006-.009c.007-.011.008-.023.015-.035.048-.079.092-.163.117-.258.004-.013 0-.025.002-.038.014-.072.011-.141.011-.213z"/>
        <path d="m31.995 52.556c.259 0 .518-.1.713-.299.388-.394.382-1.027-.012-1.414l-10.01-9.841c-.393-.389-1.027-.383-1.414.012-.388.394-.382 1.027.012 1.414l10.01 9.841c.194.191.448.287.701.287z"/>
        <path d="m18.148 32.655 2.131-3.232c.006-.009.016-.014.022-.022.038-.054.092-.095.141-.142.049-.045.092-.095.146-.129.01-.007.016-.017.025-.022.047-.027.099-.031.147-.05.063-.023.121-.052.188-.063.071-.013.14-.006.211-.003.057.003.112-.001.168.012.076.017.144.052.213.085.041.02.085.024.124.05.009.006.013.016.021.021.055.038.096.092.142.141.047.05.097.093.132.149.006.009.015.014.021.023l.656 1.136 2.317-3.098c.002-.003.006-.005.009-.008.057-.074.133-.131.209-.188.029-.021.052-.054.083-.071.033-.02.074-.023.109-.038.085-.037.17-.074.261-.086.005-.001.008-.003.012-.004.045-.005.086.01.13.011.083.001.165-.002.247.02.085.023.158.068.233.111.035.021.073.026.106.051.003.002.004.006.007.008.084.063.149.146.21.234.014.021.037.036.05.058.024.043.031.097.05.144.029.075.063.147.074.227.001.005.003.008.004.013l.459 3.844 1.135-.657c.01-.006.021-.005.029-.01.056-.03.119-.043.181-.063.068-.021.134-.047.203-.054.01-.001.018-.006.027-.007.037-.002.07.014.107.017.09.004.178.012.264.04.031.011.057.029.087.042.087.039.169.081.242.143.037.031.063.071.095.107.044.05.097.089.131.148.007.012.006.024.012.036.028.051.039.11.058.168.021.069.049.136.056.207.001.011.007.019.008.029l.19 3.158c.001.018-.007.033-.007.051.001.071-.016.139-.029.208-.012.058-.018.115-.039.169-.024.063-.065.117-.104.176-.033.051-.063.103-.104.146-.014.014-.02.033-.034.047l-6.899 6.422c-.193.179-.438.268-.682.268-.268 0-.535-.107-.732-.318-.376-.404-.354-1.037.051-1.414l.168-.156-2.459-6.555c-.059.011-.117.021-.178.021-.188 0-.38-.054-.55-.165-.461-.304-.588-.924-.285-1.386z"/>
        <path d="m7.636 45.838c-.038-.069-.08-.135-.101-.212s-.017-.155-.019-.234c-.002-.048-.018-.093-.012-.142 0-.004.003-.008.004-.012.012-.085.047-.164.08-.244.017-.041.021-.089.044-.127.015-.024.04-.042.057-.065.059-.084.121-.165.202-.227.003-.003.004-.006.007-.008l3.098-2.318-1.136-.655c-.011-.006-.017-.018-.027-.023-.087-.055-.165-.124-.233-.207-.017-.02-.034-.036-.049-.057-.008-.011-.019-.019-.025-.029-.026-.04-.031-.086-.052-.128-.031-.067-.066-.132-.082-.204-.014-.063-.011-.122-.014-.185-.002-.066-.009-.13.003-.195.011-.07.04-.133.066-.199.019-.046.021-.095.047-.139.006-.01.016-.015.021-.024.034-.056.085-.099.13-.147.047-.05.089-.104.144-.142.009-.006.013-.016.021-.021l3.233-2.131c.46-.303 1.08-.176 1.385.285.178.27.192.589.094.872l6.493 2.433.268-.288c.377-.403 1.009-.426 1.414-.051.404.377.427 1.01.051 1.414l-6.422 6.9c-.011.012-.026.016-.037.026-.054.053-.119.088-.183.128-.047.028-.087.067-.137.088-.094.038-.196.052-.301.061-.025.002-.05.016-.075.016-.001 0-.001 0-.002 0s-.001 0-.002 0c-.021 0-.04-.001-.061-.002l-3.157-.189c-.015-.001-.027-.01-.042-.011-.1-.011-.197-.036-.294-.078-.022-.01-.047-.017-.068-.028-.013-.007-.025-.009-.037-.016-.043-.025-.07-.065-.108-.096-.056-.045-.113-.085-.159-.141-.041-.051-.066-.107-.097-.164s-.064-.108-.083-.171c-.021-.069-.024-.141-.03-.213-.004-.048-.022-.092-.02-.141.001-.011.007-.02.008-.03.006-.066.032-.13.052-.195.02-.063.031-.127.063-.183.005-.011.005-.022.011-.033l.656-1.135-3.843-.46c-.077-.009-.142-.045-.211-.069-.045-.016-.091-.021-.133-.044-.13-.068-.242-.159-.33-.272-.002-.004-.006-.005-.009-.008-.03-.04-.038-.087-.061-.13z"/>
    </g>
    <path d="m8.263 34.675c0-.011-.006-.02-.006-.03 0-.05.021-.092.028-.14.011-.072.017-.143.043-.211.022-.061.06-.11.093-.165.034-.055.063-.11.106-.158.049-.053.108-.089.168-.13.04-.028.069-.067.114-.09.01-.005.021-.004.03-.008.062-.028.13-.038.196-.053.063-.015.125-.036.188-.038.011-.001.021-.007.032-.007h.001l1.313.001-1.524-3.556c-.002-.004-.001-.009-.003-.013-.033-.082-.042-.17-.054-.258-.005-.042-.023-.083-.023-.124 0-.038.018-.076.021-.114.011-.092.021-.183.057-.268.001-.004 0-.008.002-.012.019-.043.053-.071.075-.109.042-.071.081-.143.14-.202s.131-.097.201-.139c.038-.023.066-.057.108-.075.004-.002.008-.001.012-.003.091-.038.189-.051.289-.061.031-.003.062-.018.093-.018.041 0 .081.018.121.022.091.012.182.021.265.057.003.001.006.001.009.002l3.557 1.524v-1.314c0-.011.006-.02.006-.03.002-.068.024-.134.041-.201.016-.063.023-.127.05-.185.005-.011.004-.021.009-.032.023-.047.063-.077.093-.118.04-.058.076-.115.127-.163.048-.044.104-.072.159-.106.054-.034.104-.07.166-.094.064-.024.133-.03.201-.04.051-.008.096-.03.148-.03.012 0 .021.006.032.007.063.002.126.023.189.038.066.016.134.023.195.052.01.005.021.004.031.009l2.831 1.418c.057.028.095.075.143.112.051.037.104.067.146.114.055.061.089.132.127.202.021.04.056.071.072.115l4.236 11.309c.018.046.013.094.022.141.016.069.034.137.034.21 0 .072-.019.14-.034.209-.01.048-.005.095-.022.142-.005.013-.014.022-.02.034-.014.033-.035.062-.053.094-.041.074-.087.142-.144.201-.026.028-.055.054-.085.079-.07.059-.146.105-.229.143-.021.01-.034.027-.056.035-.009.003-.018.002-.026.005-.104.036-.212.059-.324.059s-.221-.022-.324-.059c-.009-.003-.018-.002-.026-.005l-11.308-4.234c-.023-.009-.038-.027-.06-.037-.08-.036-.153-.082-.223-.139-.024-.021-.051-.037-.072-.06-.075-.074-.143-.158-.192-.258l-1.415-2.83c-.005-.01-.004-.021-.009-.031-.026-.059-.035-.123-.051-.188-.013-.065-.035-.131-.037-.198z" fill="#a0d468"/>
    <path d="m32 63.995c-.553 0-1-.447-1-1v-36.996c0-.553.447-1 1-1s1 .447 1 1v36.996c0 .553-.447 1-1 1z" fill="#a0d468"/>
    <path d="m39.984 8.084c.005-.064.008-.127.001-.19-.007-.064-.023-.126-.043-.189-.02-.06-.04-.116-.07-.171-.016-.029-.019-.063-.037-.091l-2.001-3c-.02-.029-.049-.044-.07-.07s-.03-.058-.055-.082-.057-.033-.083-.055c-.054-.045-.108-.081-.169-.113-.057-.03-.111-.053-.171-.07-.063-.02-.123-.03-.188-.037-.063-.006-.123-.007-.187-.001s-.124.019-.187.036c-.063.019-.123.044-.184.075-.03.017-.064.02-.094.039-.028.02-.044.049-.07.07s-.058.03-.082.055l-1.02 1.021-2.381-4.763c-.018-.036-.05-.059-.071-.092-.037-.057-.075-.109-.124-.159-.05-.05-.104-.088-.161-.126-.033-.021-.055-.053-.091-.07-.021-.011-.045-.009-.067-.018-.063-.027-.129-.041-.197-.054-.061-.011-.12-.024-.182-.023-.062-.001-.121.012-.183.023-.068.013-.133.026-.196.053-.022.01-.046.008-.068.019-.036.019-.06.051-.093.072-.057.037-.108.074-.157.123-.05.05-.089.104-.127.162-.021.032-.053.055-.07.09l-2.381 4.762-1.02-1.02c-.024-.024-.056-.033-.082-.055s-.042-.051-.07-.07c-.029-.02-.063-.022-.093-.038-.062-.032-.122-.058-.188-.076-.062-.019-.121-.03-.184-.036s-.123-.005-.187.001c-.066.007-.128.019-.191.037-.058.018-.111.04-.166.068-.062.032-.118.069-.173.115-.025.021-.058.03-.081.054-.024.024-.033.056-.054.081-.021.026-.052.042-.071.071l-2.001 3.004c-.017.024-.019.054-.032.079-.033.06-.057.121-.076.187-.02.062-.035.12-.042.184-.007.061-.004.12.001.183.006.07.016.137.036.204.008.027.003.055.014.081l7.003 17.998c.003.008.009.014.013.021.011.027.03.05.044.076.042.081.091.154.151.218.024.027.052.049.079.073.07.06.146.108.229.146.02.01.032.026.053.034.01.004.021.002.03.006.106.038.217.063.332.063s.226-.024.332-.063c.01-.004.021-.002.03-.006.021-.008.033-.024.053-.034.083-.038.159-.087.229-.146.027-.024.055-.046.079-.073.061-.063.109-.137.151-.218.014-.026.033-.049.044-.076.004-.008.01-.014.013-.021l7.004-17.996c.012-.031.008-.063.017-.095.019-.063.028-.123.033-.187z" fill="#a0d468"/>
</svg>