<svg xmlns="http://www.w3.org/2000/svg" viewBox="0 0 64 64" width="512" height="512">
    <g id="Layer_31" data-name="Layer 31">
        <path d="M29.648,63H28a2,2,0,0,1-1.857-2.725C29.532,51.419,30.689,40.585,31,29h2c1.679,12.235,1.978,23.633-1.493,32.747A1.98,1.98,0,0,1,29.648,63Z" style="fill:#518c41"/>
        <path d="M30.963,30c-.288,9.2-1.153,17.88-3.267,25.457A7,7,0,0,0,32,49a6.971,6.971,0,0,0,1.6,4.448c1.047-7.088.634-15.059-.469-23.448H30.963Z" style="fill:#3e7c29"/>
        <path d="M50.707,13H48a2,2,0,0,1-2-2V8.293A7.194,7.194,0,0,0,39.215,1,7,7,0,0,0,32,8V27H51a7,7,0,0,0,7-7.215A7.194,7.194,0,0,0,50.707,13Z" style="fill:#85b27c"/>
        <path d="M54,24H49A14,14,0,0,1,35,10h0V5a6.962,6.962,0,0,1,.792-3.223A7,7,0,0,0,32,8V27H51a7,7,0,0,0,6.223-3.792A6.965,6.965,0,0,1,54,24Z" style="fill:#699b5d"/>
        <path d="M50.707,41H48a2,2,0,0,0-2,2v2.707A7.194,7.194,0,0,1,39.215,53,7,7,0,0,1,32,46V27H51a7,7,0,0,1,7,7.215A7.194,7.194,0,0,1,50.707,41Z" style="fill:#85b27c"/>
        <path d="M42.215,50A7,7,0,0,1,35,43V27H32V46a6.937,6.937,0,0,0,13.109,3.231A6.658,6.658,0,0,1,42.215,50Z" style="fill:#699b5d"/>
        <path d="M53.706,38H51a2,2,0,0,0-2,2v1h1.706a7.39,7.39,0,0,0,6.525-3.891A7.471,7.471,0,0,1,53.706,38Z" style="fill:#699b5d"/>
        <path d="M13.293,13H16a2,2,0,0,0,2-2V8.293A7.194,7.194,0,0,1,24.785,1,7,7,0,0,1,32,8V27H13a7,7,0,0,1-7-7.215A7.194,7.194,0,0,1,13.293,13Z" style="fill:#85b27c"/>
        <path d="M19,10a2,2,0,0,0,2-2V5.293a7.47,7.47,0,0,1,.891-3.524A7.389,7.389,0,0,0,18,8.293V10Z" style="fill:#699b5d"/>
        <path d="M21,24H16a7,7,0,0,1-7-7.215,6.658,6.658,0,0,1,.766-2.894A6.937,6.937,0,0,0,13,27H32V24Z" style="fill:#699b5d"/>
        <path d="M13.293,41H16a2,2,0,0,1,2,2v2.707A7.194,7.194,0,0,0,24.785,53,7,7,0,0,0,32,46V27H13a7,7,0,0,0-7,7.215A7.194,7.194,0,0,0,13.293,41Z" style="fill:#85b27c"/>
        <path d="M27.785,50A7.2,7.2,0,0,1,21,42.706V40a2,2,0,0,0-2-2H16.294A7.2,7.2,0,0,1,9,31.215a6.98,6.98,0,0,1,.774-3.423A6.993,6.993,0,0,0,6,34.215,7.2,7.2,0,0,0,13.294,41H16a2,2,0,0,1,2,2v2.706A7.2,7.2,0,0,0,24.785,53a6.993,6.993,0,0,0,6.423-3.774A6.98,6.98,0,0,1,27.785,50Z" style="fill:#699b5d"/>
        <path d="M44,9.293a1,1,0,0,1-1-1A4.444,4.444,0,0,0,41.374,4.85a1,1,0,0,1,1.252-1.559,6.46,6.46,0,0,1,2.374,5A1,1,0,0,1,44,9.293Z" style="fill:#fff"/>
    </g>
</svg>