<svg xmlns="http://www.w3.org/2000/svg" id="Capa_1" enable-background="new 0 0 512.487 512.487" height="512" viewBox="0 0 512.487 512.487" width="512">
    <g>
        <g>
            <g>
                <path d="m80.653 70.809c0 .049.004.097.004.146-37.066 2.262-66.432 33.025-66.432 70.661 0 21.381 9.49 40.534 24.472 53.517-15.469 13.405-25.083 33.388-24.442 55.609.97 33.602 25.797 61.553 57.942 67.523-.128 1.278-.195 2.573-.195 3.885 0 21.284 17.254 38.538 38.538 38.538.177 0 8.88-.011 9.056-.013v151.813h31.865l10-223.919-10-288.569c-39.106 0-70.808 31.702-70.808 70.809z" fill="#58b454"/>
                <path d="m264.226 195.133c14.982-12.983 24.472-32.136 24.472-53.517 0-37.635-29.365-68.398-66.431-70.661 0-.049.004-.097.004-.146 0-39.107-31.702-70.809-70.809-70.809 0 0 0 0-.001 0v512.487h31.865v-151.813c.177.002 8.88.013 9.058.013 21.284 0 38.538-17.254 38.538-38.538 0-1.312-.067-2.607-.195-3.885 32.146-5.971 56.973-33.925 57.94-67.528.64-22.219-8.973-42.199-24.441-55.603z" fill="#009959"/>
            </g>
            <g>
                <path d="m136.462 107.439v42.848l-27.201-19.641-17.562 24.322 44.763 32.322v35.068l-27.201-19.641-17.562 24.322 44.763 32.322v29.207h14.999l10-98.061-10-83.068z" fill="#009959"/>
                <path d="m166.462 222.505v-35.336l45.442-32.112-17.313-24.5-28.129 19.878v-42.996h-15.001v181.129h15.001v-29.328l45.442-32.112-17.313-24.5z" fill="#007745"/>
            </g>
        </g>
        <g>
            <path d="m372.772 42.317c-23.102 0-41.83 18.728-41.83 41.83s18.728 41.83 41.83 41.83c10.213 0 19.567-3.665 26.83-9.745v71.187h15l10-103.273-10-83.66c-23.103.001-41.83 18.729-41.83 41.831z" fill="#58b454"/>
            <path d="m456.432 42.317c0-23.102-18.728-41.83-41.83-41.83v186.933h15v-71.187c7.263 6.08 16.617 9.744 26.83 9.744 23.102 0 41.83-18.728 41.83-41.83s-18.728-41.83-41.83-41.83z" fill="#009959"/>
        </g>
        <g>
            <path d="m376.271 170.82c-20.761 0-36.55 18.648-33.125 39.125l47.164 281.976c2.293 13.711 13.292 20.566 24.291 20.566l10-214-10-127.667z" fill="#ffb655"/>
            <path d="m452.932 170.82h-38.33v341.667c10.999 0 21.998-6.855 24.292-20.566l47.163-281.976c3.425-20.477-12.364-39.125-33.125-39.125z" fill="#ff8859"/>
        </g>
    </g>
</svg>